<?xml version="1.0" encoding="UTF-8" standalone="no"?>
<!-- Created with Inkscape (http://www.inkscape.org/) -->

<svg
   width="633.28455mm"
   height="184.61377mm"
   viewBox="0 0 633.28455 184.61377"
   version="1.1"
   id="svg1"
   xml:space="preserve"
   xmlns="http://www.w3.org/2000/svg"
   xmlns:svg="http://www.w3.org/2000/svg"><defs
     id="defs1" /><g
     id="layer1"
     transform="translate(-622.29718,-24.965285)"><g
       id="g16"><path
         style="fill:#eaa5a6"
         d="m 751.2099,194.75036 -2.10562,-2.20486 2.20486,2.10563 c 2.04813,1.95594 2.36629,2.30408 2.10562,2.30408 -0.0546,0 -1.04676,-0.99217 -2.20486,-2.20485 z m 20.6764,-67.14537 c 0.0169,-0.41097 0.10052,-0.49456 0.21314,-0.21314 0.1019,0.25466 0.0894,0.55893 -0.0278,0.67616 -0.11723,0.11722 -0.20061,-0.0911 -0.18529,-0.46302 z m 158.04446,-3.175 c 0.0169,-0.41097 0.10052,-0.49456 0.21313,-0.21314 0.10191,0.25466 0.0894,0.55893 -0.0279,0.67616 -0.11722,0.11722 -0.2006,-0.0911 -0.18528,-0.46302 z m -189.02067,-1.20533 c 0,-0.87312 0.0688,-1.23031 0.15288,-0.79375 0.0841,0.43656 0.0841,1.15094 0,1.5875 -0.0841,0.43656 -0.15288,0.0794 -0.15288,-0.79375 z m 30.62343,-0.20579 c 0.0169,-0.41096 0.10052,-0.49455 0.21314,-0.21313 0.10191,0.25466 0.0894,0.55893 -0.0279,0.67615 -0.11723,0.11723 -0.2006,-0.0911 -0.18529,-0.46302 z m -0.35278,-4.23333 c 0.0169,-0.41097 0.10053,-0.49456 0.21314,-0.21314 0.10191,0.25467 0.0894,0.55894 -0.0278,0.67616 -0.11722,0.11723 -0.2006,-0.0911 -0.18529,-0.46302 z M 938.28138,94.768799 c 0.24253,-0.09787 0.63941,-0.09787 0.88194,0 0.24254,0.09786 0.0441,0.177936 -0.44097,0.177936 -0.48507,0 -0.68351,-0.08007 -0.44097,-0.177936 z M 783.55582,90.416326 c 0,-0.48507 0.0801,-0.683507 0.17793,-0.440972 0.0979,0.242534 0.0979,0.639409 0,0.881944 -0.0979,0.242535 -0.17793,0.0441 -0.17793,-0.440972 z m 204.29755,-0.244472 c 0.34325,-0.08944 0.8195,-0.08356 1.05834,0.01307 0.23884,0.09663 -0.042,0.169816 -0.62408,0.162626 -0.58208,-0.0072 -0.7775,-0.08625 -0.43426,-0.175698 z M 804.62179,89.093409 c -0.43881,-0.559525 -0.42634,-0.572003 0.13319,-0.133193 0.58764,0.460858 0.77452,0.750554 0.48417,0.750554 -0.0733,0 -0.35107,-0.277812 -0.61736,-0.617361 z m 9.4818,-10.552388 c 0.24254,-0.09786 0.63941,-0.09786 0.88195,0 0.24253,0.09786 0.0441,0.177936 -0.44098,0.177936 -0.48507,0 -0.6835,-0.08007 -0.44097,-0.177936 z m 9.17222,-0.352778 c 0.24254,-0.09786 0.63941,-0.09786 0.88195,0 0.24253,0.09786 0.0441,0.177936 -0.44097,0.177936 -0.48507,0 -0.68351,-0.08007 -0.44098,-0.177936 z M 684.09862,77.01077 c 0,-0.679098 0.0726,-0.95691 0.16133,-0.617361 0.0887,0.339548 0.0887,0.895173 0,1.234722 -0.0887,0.339548 -0.16133,0.06174 -0.16133,-0.617361 z m 146.58553,0.824695 c 0.24253,-0.09786 0.63941,-0.09786 0.88194,0 0.24254,0.09786 0.0441,0.177936 -0.44097,0.177936 -0.48507,0 -0.68351,-0.08007 -0.44097,-0.177936 z M 652.20063,74.300338 c 0.25466,-0.101908 0.55893,-0.08937 0.67616,0.02785 0.11722,0.117225 -0.0911,0.200603 -0.46303,0.185285 -0.41096,-0.01693 -0.49455,-0.10052 -0.21313,-0.213136 z m 10.56128,-0.008 c 0.43657,-0.08409 1.15094,-0.08409 1.5875,0 0.43657,0.08409 0.0794,0.152883 -0.79375,0.152883 -0.87312,0 -1.23031,-0.0688 -0.79375,-0.152883 z m 3.52778,0 c 0.43656,-0.08409 1.15094,-0.08409 1.5875,0 0.43656,0.08409 0.0794,0.152883 -0.79375,0.152883 -0.87312,0 -1.23031,-0.0688 -0.79375,-0.152883 z m 10.93611,0.01533 c 0.24254,-0.09786 0.63941,-0.09786 0.88195,0 0.24253,0.09786 0.0441,0.177936 -0.44097,0.177936 -0.48507,0 -0.68351,-0.08007 -0.44098,-0.177936 z m 7.19946,-7.527474 c 0,-0.48507 0.0801,-0.683507 0.17793,-0.440973 0.0979,0.242535 0.0979,0.63941 0,0.881945 -0.0979,0.242535 -0.17793,0.0441 -0.17793,-0.440972 z m 0.36584,-8.643056 c 0.007,-0.582084 0.0863,-0.7775 0.1757,-0.434259 0.0894,0.343242 0.0836,0.819492 -0.0131,1.058334 -0.0966,0.238842 -0.16981,-0.04199 -0.16263,-0.624075 z m 59.1529,-5.732639 c -0.43881,-0.559526 -0.42633,-0.572004 0.1332,-0.133194 0.33954,0.266293 0.61736,0.544105 0.61736,0.617362 0,0.290348 -0.2897,0.10347 -0.75056,-0.484168 z m -5.29166,-5.644445 c -0.43881,-0.559525 -0.42634,-0.572003 0.13319,-0.133193 0.33955,0.266292 0.61736,0.544105 0.61736,0.617361 0,0.290348 -0.28969,0.103471 -0.75055,-0.484168 z"
         id="path14" /><path
         style="fill:#a29f9f"
         d="m 1074.4757,161.08367 c 0.2546,-0.1019 0.5589,-0.0894 0.6761,0.0279 0.1172,0.11723 -0.091,0.20061 -0.463,0.18529 -0.411,-0.0169 -0.4946,-0.10052 -0.2131,-0.21314 z m -8.8195,-0.35277 c 0.2547,-0.10191 0.559,-0.0894 0.6762,0.0279 0.1172,0.11722 -0.091,0.2006 -0.463,0.18528 -0.411,-0.0169 -0.4946,-0.10052 -0.2132,-0.21313 z m -146.89931,-6.19721 -0.67204,-0.79375 0.79375,0.67204 c 0.74593,0.63155 0.95435,0.91546 0.67204,0.91546 -0.0669,0 -0.42413,-0.35719 -0.79375,-0.79375 z m 92.69341,-0.26458 c 0,-0.48507 0.08,-0.68351 0.1779,-0.44098 0.098,0.24254 0.098,0.63941 0,0.88195 -0.098,0.24253 -0.1779,0.0441 -0.1779,-0.44097 z m 71.9999,-11.81806 c 0,-0.77611 0.076,-1.05207 0.1606,-0.61325 0.084,0.43883 0.081,1.07383 -0.01,1.41111 -0.088,0.33729 -0.1574,-0.0217 -0.1535,-0.79786 z m 104.4151,-0.17639 c 0,-0.6791 0.073,-0.95691 0.1614,-0.61736 0.089,0.33955 0.089,0.89517 0,1.23472 -0.089,0.33955 -0.1614,0.0617 -0.1614,-0.61736 z m -20.1623,-1.6169 c 0.017,-0.41096 0.1005,-0.49456 0.2131,-0.21313 0.1019,0.25466 0.089,0.55893 -0.028,0.67615 -0.1172,0.11723 -0.2006,-0.0911 -0.1853,-0.46302 z m -291.01384,-1.5581 c 0,-0.48507 0.0801,-0.68351 0.17793,-0.44097 0.0979,0.24253 0.0979,0.63941 0,0.88194 -0.0979,0.24254 -0.17793,0.0441 -0.17793,-0.44097 z m 186.26664,-4.23333 c 0,-0.48507 0.08,-0.68351 0.178,-0.44097 0.098,0.24253 0.098,0.6394 0,0.88194 -0.098,0.24253 -0.178,0.0441 -0.178,-0.44097 z m -52.2389,-4.7919 c 0.017,-0.41097 0.1005,-0.49456 0.2131,-0.21314 0.1019,0.25466 0.089,0.55894 -0.028,0.67616 -0.1172,0.11722 -0.2006,-0.0911 -0.1853,-0.46302 z m 156.6333,-1.41111 c 0.017,-0.41097 0.1005,-0.49456 0.2132,-0.21314 0.1019,0.25466 0.089,0.55893 -0.028,0.67616 -0.1173,0.11722 -0.2006,-0.0911 -0.1853,-0.46302 z m -291.04167,-1.76389 c 0.0169,-0.41097 0.10052,-0.49456 0.21314,-0.21314 0.1019,0.25466 0.0894,0.55894 -0.0279,0.67616 -0.11723,0.11723 -0.20061,-0.0911 -0.18529,-0.46302 z m 53.62223,-1.41111 c 0.0169,-0.41097 0.10052,-0.49456 0.21313,-0.21314 0.10191,0.25466 0.0894,0.55893 -0.0279,0.67616 -0.11722,0.11722 -0.2006,-0.0911 -0.18528,-0.46302 z m 132.64444,-1.41111 c 0.017,-0.41097 0.1005,-0.49456 0.2132,-0.21314 0.1019,0.25466 0.089,0.55893 -0.028,0.67616 -0.1173,0.11722 -0.2007,-0.0911 -0.1853,-0.46302 z m -71.96666,-3.88056 c 0.0169,-0.41096 0.10052,-0.49456 0.21314,-0.21313 0.1019,0.25466 0.0894,0.55893 -0.0279,0.67615 -0.11722,0.11723 -0.2006,-0.0911 -0.18528,-0.46302 z m -114.62494,-4.7331 c 0,-0.48507 0.0801,-0.68351 0.17794,-0.44097 0.0979,0.24253 0.0979,0.63941 0,0.88194 -0.0979,0.24254 -0.17794,0.0441 -0.17794,-0.44097 z m 291.0138,0.14699 c 0.017,-0.41097 0.1006,-0.49456 0.2132,-0.21314 0.1019,0.25467 0.089,0.55894 -0.028,0.67616 -0.1172,0.11723 -0.2006,-0.0911 -0.1853,-0.46302 z m -104.775,-2.46944 c 0.017,-0.41097 0.1006,-0.49456 0.2132,-0.21314 0.1019,0.25466 0.089,0.55893 -0.028,0.67616 -0.1173,0.11722 -0.2006,-0.0911 -0.1853,-0.46302 z m 104.4223,-7.76112 c 0.017,-0.41096 0.1005,-0.49455 0.2131,-0.21313 0.1019,0.25466 0.089,0.55893 -0.028,0.67616 -0.1172,0.11722 -0.2006,-0.0911 -0.1853,-0.46303 z m 19.7555,-1.05833 c 0.017,-0.41097 0.1005,-0.49456 0.2132,-0.21314 0.1019,0.25467 0.089,0.55894 -0.028,0.67616 -0.1173,0.11723 -0.2006,-0.0911 -0.1853,-0.46302 z m -103.2956,-6.849768 c 0,-0.873125 0.069,-1.230313 0.1528,-0.79375 0.084,0.436562 0.084,1.150937 0,1.5875 -0.084,0.436562 -0.1528,0.07938 -0.1528,-0.79375 z m -0.068,-2.322454 c 0.017,-0.410966 0.1005,-0.494559 0.2131,-0.213137 0.1019,0.254662 0.089,0.558933 -0.028,0.676158 -0.1172,0.117225 -0.2006,-0.09114 -0.1853,-0.463021 z m -21.4917,-2.969213 c 0,-0.48507 0.08,-0.683507 0.178,-0.440972 0.098,0.242534 0.098,0.639409 0,0.881944 -0.098,0.242535 -0.178,0.0441 -0.178,-0.440972 z M 1083.417,80.18577 c 0,-0.48507 0.08,-0.683507 0.1779,-0.440972 0.098,0.242534 0.098,0.639409 0,0.881944 -0.098,0.242535 -0.1779,0.0441 -0.1779,-0.440972 z m 141.6727,-10.111416 c 0.2426,-0.09787 0.6394,-0.09787 0.882,0 0.2425,0.09786 0.044,0.177936 -0.441,0.177936 -0.4851,0 -0.6835,-0.08007 -0.441,-0.177936 z"
         id="path13" /><path
         style="fill:#e60107"
         d="m 753.60521,197.13072 c -0.16315,-0.29152 -4.64383,-4.89527 -9.95706,-10.23055 -7.26197,-7.29209 -9.86953,-9.70051 -10.50261,-9.70051 -0.82824,0 -2.69142,1.43758 -17.31699,13.36128 -3.16748,2.58233 -5.80095,4.64089 -5.85215,4.57457 -0.0512,-0.0663 -0.50556,-1.15245 -1.00969,-2.41362 -4.99267,-12.49011 -9.16817,-22.41874 -9.52304,-22.64417 -0.23861,-0.15157 -0.77003,-0.27802 -1.18093,-0.28099 -0.53872,-0.004 -24.41388,7.95482 -28.20419,9.40179 -0.42452,0.16206 -0.38667,-0.23456 1.44841,-15.17624 0.84087,-6.84662 1.10168,-10.02237 0.86016,-10.47366 -0.221,-0.41293 -0.88968,-0.71536 -1.84501,-0.83444 -1.41565,-0.17646 -19.0382,-1.71691 -25.78323,-2.25381 l -3.11817,-0.24821 3.47095,-3.89825 c 1.90902,-2.14404 5.93157,-6.64359 8.939,-9.999 4.4869,-5.00606 5.46806,-6.29081 5.46806,-7.15998 0,-1.16892 1.35378,-0.27854 -14.64028,-9.62894 -3.58952,-2.09849 -6.79457,-3.99828 -7.12236,-4.22175 -0.50385,-0.34352 -0.0677,-0.6335 2.82223,-1.87623 2.82871,-1.21642 12.41443,-5.1838 21.58624,-8.93421 2.38387,-0.97478 3.17566,-1.61831 3.17279,-2.57868 -10e-4,-0.40649 -2.08797,-4.231572 -4.63722,-8.500183 -6.47551,-10.842952 -8.06057,-13.588594 -8.06057,-13.962545 0,-0.193091 6.20505,-0.324956 15.29116,-0.324956 14.3658,0 15.32649,-0.03904 15.875,-0.645139 0.46062,-0.508978 0.58384,-1.383205 0.58384,-4.142142 0,-4.172018 0.71647,-20.376278 0.9098,-20.57676 0.0745,-0.07724 2.16243,0.593458 4.63989,1.490431 14.14855,5.122522 25.18485,9.054261 25.9641,9.249839 0.48986,0.122948 1.13845,0.08487 1.44131,-0.08461 0.30285,-0.169486 3.45216,-6.155219 6.99846,-13.301629 l 6.44781,-12.993473 4.02227,4.362159 c 9.02346,9.785964 14.94167,15.827438 15.50453,15.827438 0.56359,0 6.10967,-3.809075 20.80287,-14.287501 3.53694,-2.522361 6.53694,-4.586111 6.66667,-4.586111 0.12973,0 0.33838,0.47625 0.46366,1.058333 0.31498,1.463449 5.62187,23.491616 5.8428,24.252653 0.4372,1.506029 1.29357,1.29937 21.05751,-5.081533 4.23301,-1.366654 7.77372,-2.407496 7.86823,-2.312984 0.0945,0.09451 -0.98761,4.707825 -2.40472,10.251806 -2.3961,9.373944 -2.53574,10.120889 -1.99376,10.664251 0.53412,0.535472 1.43307,0.55125 10.75973,0.188856 5.5973,-0.217487 11.34792,-0.494615 12.77916,-0.615839 1.63144,-0.138181 2.5527,-0.0925 2.46944,0.122453 -0.14558,0.375866 -4.04432,6.131998 -8.86405,13.086961 -1.69774,2.449878 -3.08681,4.712569 -3.08681,5.028203 0,0.315633 0.27782,0.813736 0.61736,1.106895 0.33955,0.293159 4.46705,2.019157 9.17223,3.835547 4.70517,1.8164 8.55225,3.38708 8.54906,3.49041 -0.003,0.10334 -2.25115,1.77538 -4.99545,3.71566 -7.77122,5.49439 -8.40431,6.03586 -8.40431,7.18794 0,0.8774 0.94792,1.75593 7.84931,7.27468 4.31712,3.45222 7.89435,6.38898 7.94941,6.52612 0.12198,0.30388 -1.45279,0.89236 -18.91622,7.06893 -5.12441,1.81244 -5.15887,0.74504 0.45564,14.11297 2.62819,6.25762 4.77853,11.50575 4.77853,11.6625 0,0.15675 -0.75406,0.20779 -1.6757,0.11341 -20.11609,-2.05997 -27.01465,-2.61086 -27.5539,-2.20034 -0.31907,0.2429 -0.61933,0.45962 -0.66725,0.4816 -0.0479,0.022 -1.27737,5.88687 -2.7321,13.03308 -1.45474,7.14622 -2.68553,13.03269 -2.7351,13.08106 -0.0496,0.0484 -4.21762,-2.43942 -9.26234,-5.52842 -13.32915,-8.16174 -13.48886,-8.24775 -14.59343,-7.85929 -0.52336,0.18406 -1.49487,1.16965 -2.22613,2.25839 -1.70755,2.54229 -11.92115,18.79522 -13.01735,20.71452 -0.92827,1.62529 -1.19253,1.78137 -1.6455,0.97196 z m -49.11969,-31.17481 c 1.25699,-0.36323 4.19042,-1.23001 6.51876,-1.92618 2.32833,-0.69616 5.66208,-1.68134 7.40833,-2.18927 4.08544,-1.18832 5.11528,-2.1603 5.11528,-4.82787 0,-1.00733 -0.23376,-3.74326 -0.51946,-6.07985 -0.83701,-6.84548 -4.40961,-40.45204 -4.41753,-41.55461 -0.001,-0.14552 0.23068,-0.26458 0.51494,-0.26458 0.28426,0 1.19707,-0.2212 2.02847,-0.49157 0.8314,-0.27035 3.01976,-0.91101 4.86302,-1.42368 1.84327,-0.51266 3.63125,-1.01718 3.9733,-1.12115 0.48041,-0.14602 0.33913,0.27824 -0.62092,1.86466 -1.60931,2.65927 -3.17893,6.74576 -3.7021,9.63841 -0.2281,1.26118 -0.59992,2.67427 -0.82625,3.14021 -0.71408,1.46998 -0.53892,13.07174 0.24819,16.43895 1.63956,7.01402 5.87667,13.36405 10.48648,15.7158 2.17123,1.10768 6.33858,2.09948 8.82162,2.09948 3.15329,0 8.43175,-1.38599 12.09571,-3.17602 3.32225,-1.62309 7.66447,-5.10957 9.57946,-7.6916 1.42236,-1.9178 4.74138,-8.32216 4.7598,-9.18445 0.007,-0.32199 0.23937,-0.9823 0.51666,-1.46737 0.46378,-0.81129 0.50517,-0.61087 0.51667,2.50154 0.007,1.86092 0.1618,4.63905 0.34427,6.17361 0.29872,2.51214 0.59131,5.87059 1.29894,14.90981 0.28105,3.58998 1.05651,4.80092 3.03847,4.74474 1.80173,-0.0511 14.36319,-3.98418 15.40561,-4.82364 0.27259,-0.21951 0.71052,-0.91323 0.97317,-1.54159 0.40451,-0.96771 0.39615,-1.87676 -0.0546,-5.94268 -0.29272,-2.64011 -0.53221,-5.42006 -0.53221,-6.17766 v -1.37747 l 1.6757,-0.005 c 2.25993,-0.007 5.70944,-0.85458 8.12064,-1.99526 3.03777,-1.4371 7.4524,-5.86739 9.20669,-9.23936 2.4062,-4.62501 3.28267,-8.21575 3.48746,-14.2874 0.21462,-6.3631 -0.2767,-10.40442 -1.85019,-15.2186 -1.93193,-5.910863 -4.53505,-9.567831 -9.22534,-12.960093 -2.74473,-1.985132 -4.63955,-2.522893 -8.15022,-2.31308 -3.29634,0.197005 -5.90852,1.317827 -8.49863,3.64656 -1.3388,1.203692 -1.79424,1.447198 -1.94959,1.042359 -0.11153,-0.290549 -0.42125,-0.528258 -0.68831,-0.528258 -0.26706,0 -0.7729,-0.3175 -1.12408,-0.705556 -0.35119,-0.388055 -0.9417,-0.705555 -1.31225,-0.705555 -0.37055,0 -3.22118,0.747033 -6.33474,1.660072 -4.31647,1.265788 -5.78164,1.844172 -6.1689,2.435191 -0.44508,0.679283 -0.41778,1.72804 0.22082,8.48229 1.53583,16.24406 2.4327,28.30298 2.1763,29.26168 -0.41715,1.5598 -0.90932,0.35419 -0.91966,-2.2528 -0.005,-1.3713 -0.17517,-2.32055 -0.44471,-2.48714 -0.29645,-0.18321 -0.54439,-2.23898 -0.77494,-6.42532 -0.26858,-4.87683 -0.53038,-6.81289 -1.25999,-9.31778 -3.40378,-11.685958 -11.24057,-16.797515 -22.19515,-14.476825 -3.66115,0.775602 -8.41608,3.238882 -11.22915,5.817235 l -2.38125,2.18257 V 93.317377 c 0,-9.799291 -0.0297,-10.251995 -0.73116,-11.143754 -0.40214,-0.511236 -0.972,-0.92952 -1.26637,-0.92952 -0.29436,0 -0.81807,-0.349325 -1.1638,-0.776277 l -0.62859,-0.776277 -11.95157,2.941724 c -18.99258,4.67478 -38.66912,9.872848 -39.54524,10.446901 -0.44271,0.29008 -0.80494,0.82187 -0.80494,1.181757 0,0.359888 -0.21674,1.189666 -0.48165,1.843951 -0.51472,1.271283 -0.42287,2.697558 1.00812,15.653498 0.91563,8.29001 1.17553,8.52592 7.51457,6.82093 2.27139,-0.61092 5.16167,-1.38829 6.42285,-1.72747 1.26118,-0.33918 2.40679,-0.51011 2.54581,-0.37983 0.13901,0.13028 0.42069,2.53613 0.62596,5.34634 0.35307,4.83351 1.35032,16.67597 2.1236,25.21781 0.19321,2.13431 0.5935,6.95548 0.88952,10.71372 0.29602,3.75824 0.69435,7.12488 0.88516,7.48142 0.82177,1.53549 2.76602,1.75729 6.34314,0.72361 z m 40.87743,-33.4396 c -1.17198,-0.31353 -1.55034,-1.8412 -1.55034,-6.25975 0,-3.72467 0.0989,-4.45143 0.77828,-5.72155 1.12213,-2.09771 2.69429,-3.30757 4.29807,-3.30757 1.93928,0 3.0392,1.3206 3.89859,4.68078 0.62802,2.45556 0.64621,2.86963 0.19309,4.39496 -1.3052,4.39355 -4.54421,7.03535 -7.61769,6.21313 z m 43.56636,-12.20207 c -0.0214,-0.63059 -0.16336,-3.21656 -0.31553,-5.7466 l -0.27666,-4.60008 1.13634,-0.95617 c 2.7522,-2.31583 5.18654,-0.49955 5.82968,4.34957 0.39578,2.98399 -1.50975,6.51631 -4.06726,7.53963 -1.97735,0.79117 -2.26233,0.71873 -2.30657,-0.58635 z"
         id="path12" /><path
         style="fill:#9a0202"
         d="m 771.294,131.8905 c 0,-0.47254 0.127,-0.78067 0.28223,-0.68473 0.15522,0.0959 0.28222,0.48255 0.28222,0.85916 0,0.3766 -0.127,0.68473 -0.28222,0.68473 -0.15523,0 -0.28223,-0.38662 -0.28223,-0.85916 z m -27.69335,-0.58752 c -1.45605,-1.45605 -2.20908,-3.81628 -2.36501,-7.41261 -0.22303,-5.14393 1.0199,-8.58413 3.77132,-10.43831 2.98806,-2.01365 5.5449,-1.26731 7.23391,2.11157 0.86688,1.7342 1.04006,2.55469 1.1542,5.46806 l 0.13428,3.42769 -0.71535,-2.62874 c -0.89145,-3.27585 -2.02325,-4.6032 -3.92504,-4.6032 -1.60378,0 -3.17594,1.20986 -4.29807,3.30757 -0.68432,1.27929 -0.77828,1.99136 -0.77828,5.89863 0,3.24783 0.1303,4.60069 0.48417,5.02708 0.69432,0.8366 0.18216,0.72054 -0.69613,-0.15774 z m 43.95189,-10.90553 c -0.50824,-0.5616 -0.77623,-2.02198 -1.27845,-6.96656 l -0.63541,-6.256 0.86949,-1.31389 c 1.04295,-1.57599 2.64606,-2.47334 4.50576,-2.5221 1.14714,-0.0301 1.56022,0.17246 2.54639,1.24856 1.40847,1.53691 1.90017,3.0651 2.18317,6.78522 0.15678,2.06102 0.10597,2.72271 -0.1948,2.53682 -0.2238,-0.13831 -0.40691,-0.71089 -0.40691,-1.27239 0,-1.24324 -0.60203,-2.72422 -1.53993,-3.78814 -0.98265,-1.1147 -2.69013,-1.04779 -4.12758,0.16174 l -1.13554,0.95549 0.21735,4.24798 c 0.11955,2.33639 0.32163,4.84329 0.44908,5.5709 0.26932,1.53761 -0.37099,1.80755 -1.45262,0.61237 z m -3.69965,-29.020785 c 0,-0.94399 0.15187,-1.313117 0.54024,-1.313117 0.90624,0 1.02746,1.058537 0.21434,1.871662 l -0.75458,0.754573 z"
         id="path11" /><path
         style="fill:#6e0000"
         d="m 698.64102,165.75042 c -0.47625,-0.47625 -0.86803,-1.15094 -0.87063,-1.49931 -0.003,-0.34836 -0.3222,-4.36402 -0.71023,-8.92367 -0.38803,-4.55965 -0.86523,-10.27465 -1.06043,-12.7 -0.1952,-2.42535 -0.50947,-5.99722 -0.69836,-7.9375 -0.1889,-1.94028 -0.58472,-6.76088 -0.87961,-10.71246 -0.29488,-3.95157 -0.61397,-7.31058 -0.70908,-7.46447 -0.18359,-0.29706 -1.12292,-0.0901 -8.58209,1.89125 -4.87092,1.29382 -5.72625,1.30139 -6.75668,0.0598 -0.32362,-0.38994 -0.83836,-3.52876 -1.46678,-8.94439 -1.02144,-8.80245 -1.21648,-12.93739 -0.65147,-13.81168 0.18809,-0.291042 0.34405,-0.370417 0.34659,-0.176389 0.002,0.194028 0.41561,4.400903 0.91796,9.348609 0.94249,9.28288 1.10379,9.89615 2.59524,9.86705 0.30247,-0.006 3.56532,-0.86666 7.25079,-1.9128 3.68547,-1.04614 6.76051,-1.84242 6.83342,-1.76951 0.1226,0.1226 1.08017,10.85737 3.38187,37.91249 1.04148,12.24189 1.03624,12.20697 1.89999,12.66923 0.6029,0.32267 6.05147,-1.11601 17.8122,-4.70325 3.65612,-1.11519 3.8908,-1.48717 3.40955,-5.40433 -0.18501,-1.50592 -0.89047,-7.89742 -1.5677,-14.20332 -2.85479,-26.58187 -3.38436,-32.22791 -3.04265,-32.43909 0.19051,-0.11775 3.01288,-0.90419 6.27193,-1.74765 4.02589,-1.04192 6.17708,-1.77364 6.71016,-2.28244 0.77117,-0.73604 0.78514,-0.910679 0.81476,-10.185684 0.0287,-8.968311 0.0629,-9.436806 0.68909,-9.436806 0.36241,0 0.98795,0.418284 1.39009,0.92952 0.70094,0.891091 0.73116,1.346078 0.73116,11.005344 v 10.075826 l -0.88495,1.27699 c -0.9457,1.36464 -0.26936,1.1073 -10.40394,3.95858 -1.45521,0.40941 -2.68997,0.77449 -2.74393,0.81128 -0.15234,0.10389 2.96767,30.16255 4.33943,41.80669 0.76738,6.51392 0.71532,7.53015 -0.44897,8.76315 -0.94183,0.99742 -4.68717,2.25968 -18.07223,6.09072 -3.19872,0.91553 -4.77428,0.85844 -5.8445,-0.21178 z m 76.85397,-4.08506 c -1.43761,-0.56291 -1.79748,-1.70457 -2.22022,-7.04348 -0.22277,-2.8134 -0.56003,-6.78215 -0.74947,-8.81944 -0.43248,-4.65111 -0.815,-16.12119 -0.52845,-15.84583 0.2413,0.23187 0.95248,7.49885 1.80943,18.48916 0.3176,4.0732 0.74308,7.60539 0.94551,7.8493 0.20243,0.24392 0.76603,0.44348 1.25244,0.44348 1.13757,0 12.35974,-3.42894 13.40492,-4.09587 0.97304,-0.62091 1.01188,-1.94618 0.26769,-9.1333 -0.28127,-2.71638 -0.51609,-5.44374 -0.52184,-6.06079 -0.0102,-1.09862 0.0133,-1.11509 1.13376,-0.79375 2.68628,0.77042 6.96495,0.0628 10.29467,-1.70259 2.46124,-1.30492 6.47717,-5.43069 7.89731,-8.11332 2.79195,-5.27395 3.81149,-10.50748 3.48742,-17.90177 -0.31457,-7.17749 -2.24764,-13.574738 -5.30332,-17.550695 -1.64668,-2.142608 -1.20221,-2.16069 0.80044,-0.03256 3.34501,3.554603 5.78559,9.067855 6.92477,15.642975 0.43867,2.53188 0.54031,4.73162 0.41566,8.99584 -0.18642,6.3775 -0.94847,9.6925 -3.30777,14.38921 -1.63804,3.26088 -6.40078,8.10387 -9.36235,9.5201 -2.41532,1.15501 -5.86007,2.00754 -8.14033,2.01464 l -1.6757,0.005 6.5e-4,1.32291 c 3.6e-4,0.72761 0.23284,3.52433 0.51664,6.21494 0.54014,5.12112 0.37833,6.45038 -0.91583,7.52354 -0.52645,0.43655 -3.3559,1.40569 -10.0084,3.42808 -5.00605,1.52186 -5.49137,1.61669 -6.41763,1.25401 z m -36.20535,-7.42692 c -3.20577,-0.91407 -4.67533,-1.70229 -6.89579,-3.69868 -4.95934,-4.45887 -7.70158,-11.36071 -8.06166,-20.29011 -0.19041,-4.72188 0.0843,-9.4937 0.5467,-9.4952 0.13007,-4.2e-4 0.18547,1.62406 0.12311,3.60996 -0.12391,3.94581 0.60386,9.25362 1.70937,12.46684 3.01795,8.77182 9.87666,13.75813 18.00939,13.0929 12.65142,-1.03485 22.55933,-10.79227 24.65158,-24.27717 0.46181,-2.97641 0.72222,-3.50002 0.72222,-1.45218 0,0.83825 0.18423,1.50192 0.44064,1.58739 0.2868,0.0956 0.46326,0.9988 0.50544,2.58704 0.0356,1.34208 0.0973,2.99578 0.13697,3.67487 0.10588,1.81139 -0.5993,4.02889 -2.35591,7.40834 -2.1379,4.113 -3.5455,5.92529 -6.67818,8.59825 -3.26661,2.78722 -7.47697,4.90836 -12.04098,6.06611 -4.09133,1.03785 -7.46643,1.07582 -10.8129,0.12164 z M 650.08396,74.300338 c 0.25466,-0.101908 0.55893,-0.08937 0.67616,0.02785 0.11722,0.117225 -0.0911,0.200603 -0.46302,0.185285 -0.41097,-0.01693 -0.49456,-0.10052 -0.21314,-0.213136 z"
         id="path10" /><path
         style="fill:#4e0000;fill-opacity:1"
         d="m 752.98484,209.41492 c -2.78426,-0.62529 -3.32264,-1.05809 -11.85924,-9.53359 l -8.68423,-8.62207 -9.48383,7.60457 c -6.35655,5.09697 -9.99893,7.781 -11.04597,8.13964 -3.89523,1.33423 -8.04373,0.0374 -10.13779,-3.16909 -0.38014,-0.58208 -2.48445,-5.42396 -4.67624,-10.75972 -2.1918,-5.33576 -4.01608,-9.73638 -4.05397,-9.77914 -0.0379,-0.0428 -5.37847,1.68947 -11.86797,3.84943 -9.95405,3.31308 -12.15907,3.93205 -14.10111,3.95831 -2.87052,0.0388 -5.28634,-1.0908 -6.92361,-3.23741 -1.90571,-2.49854 -1.97035,-3.64505 -0.81026,-14.37035 0.56665,-5.23875 1.03246,-9.70103 1.03515,-9.91617 0.005,-0.43438 -2.05194,-0.69562 -16.39928,-2.08233 -5.23875,-0.50634 -10.17227,-1.15179 -10.96338,-1.43433 -3.01828,-1.07797 -5.0929,-4.12245 -5.08026,-7.4552 0.011,-2.89462 0.84428,-4.43698 4.66229,-8.62945 1.825,-2.004 4.93601,-5.46558 6.91335,-7.6924 l 3.59516,-4.04876 -2.00828,-1.24291 c -11.96998,-7.4081 -16.56381,-10.52285 -17.51422,-11.87511 -1.45435,-2.06929 -1.70318,-5.27574 -0.59274,-7.63811 1.05489,-2.24416 2.55651,-3.40625 6.44964,-4.99127 1.78726,-0.72765 7.18199,-2.9904 11.9883,-5.02833 l 8.73875,-3.705322 -0.67148,-1.112102 c -2.90199,-4.80628 -9.4173,-16.14817 -9.80234,-17.063967 -0.26251,-0.624358 -0.47729,-1.939144 -0.47729,-2.921747 0,-3.141101 1.52195,-5.617801 4.40973,-7.176059 1.36788,-0.738113 1.84074,-0.764609 15.43403,-0.864831 l 14.02291,-0.103389 0.0188,-1.484111 c 0.0103,-0.816261 0.21861,-5.455896 0.46282,-10.3103 0.43841,-8.714487 0.45714,-8.850316 1.48051,-10.73252 1.82276,-3.352463 4.57353,-4.778366 8.73884,-4.529909 2.18944,0.130599 4.18053,0.773722 14.85937,4.799573 6.78214,2.556822 12.49784,4.648767 12.70156,4.648767 0.20372,0 2.83032,-4.951482 5.83689,-11.003294 5.69863,-11.470535 6.63053,-12.886898 9.35876,-14.224024 2.00863,-0.98445 5.84291,-0.942338 7.79059,0.08556 1.23819,0.653461 6.85929,6.293613 16.20383,16.258747 l 1.78112,1.89941 10.95902,-8.092334 c 6.02745,-4.450784 11.61885,-8.35635 12.42532,-8.679036 1.94102,-0.776644 5.13373,-0.741657 6.93374,0.07598 0.78362,0.355954 2.06617,1.375859 2.85011,2.266456 1.6335,1.855753 1.85901,2.52437 4.93117,14.619994 1.14557,4.510287 2.2033,8.201224 2.35051,8.202084 0.14721,8.59e-4 4.75097,-1.523425 10.23056,-3.387298 13.08483,-4.450782 13.61651,-4.586419 15.9075,-4.058123 3.68381,0.849479 6.21467,3.839488 6.22278,7.351724 0.002,0.820733 -0.70388,4.624555 -1.56838,8.452938 -0.86451,3.828383 -1.52157,7.01096 -1.46014,7.072394 0.0614,0.06143 4.24085,-0.03934 9.28759,-0.223932 5.04674,-0.184596 9.71224,-0.214179 10.36777,-0.06574 2.78321,0.63023 4.88024,2.423417 5.76429,4.929091 1.22875,3.482651 0.67634,5.036218 -4.64233,13.055776 -2.37808,3.585697 -4.26603,6.577204 -4.19544,6.647794 0.20279,0.20279 12.6874,5.368943 12.76725,5.283111 0.0394,-0.04235 -0.3316,-3.903529 -0.82445,-8.580391 -0.49286,-4.676862 -0.79278,-9.054146 -0.66649,-9.727298 0.38213,-2.036928 2.07822,-4.337029 3.79696,-5.149124 0.98631,-0.466023 4.13745,-1.116319 8.77126,-1.810113 30.05878,-4.500522 53.86441,-7.797232 56.23054,-7.787055 2.62406,0.01129 4.57416,1.022711 5.84963,3.03392 0.58215,0.917958 1.1513,2.163893 1.26477,2.768743 0.11347,0.60485 -0.0466,5.203749 -0.35577,10.219776 -0.30914,5.016027 -0.5123,9.169826 -0.45146,9.230665 0.0608,0.06084 1.31511,-0.271882 2.78727,-0.739379 1.47216,-0.467498 3.74565,-1.036153 5.05219,-1.263678 3.11235,-0.541991 11.65468,-0.236146 14.4659,0.517928 3.10384,0.832568 8.84552,3.789567 11.39225,5.867077 l 2.22003,1.811004 0.72623,-0.923249 c 1.38173,-1.756587 8.70743,-4.892539 14.86534,-6.363489 10.36091,-2.474926 20.38854,-1.675738 27.35753,2.180354 3.1988,1.769991 7.3841,5.860898 9.7853,9.564608 0.038,0.0578 1.2895,-1.088845 2.7822,-2.548081 5.6858,-5.558077 12.5265,-8.965214 20.2746,-10.098133 3.8859,-0.568203 11.0234,-0.249289 14.4446,0.645407 l 2.6008,0.680166 -0.2551,-7.666526 c -0.238,-7.150594 -0.2089,-7.771108 0.4322,-9.220542 0.7025,-1.587965 2.4163,-3.300153 3.8482,-3.844575 1.472,-0.559648 26.9118,-3.54287 28.1813,-3.304707 1.8868,0.35396 4.002,2.084598 4.8268,3.949146 0.6807,1.538766 0.7146,2.164334 0.5867,10.823516 -0.1186,8.036944 -0.069,9.173992 0.3935,9.059954 0.2911,-0.07172 1.9579,-0.20585 3.7042,-0.298062 7.4958,-0.395817 14.2603,2.719559 18.393,8.47086 0.7254,1.009461 1.3388,1.871944 1.3632,1.916629 0.024,0.04468 0.9868,-0.835381 2.1389,-1.955701 4.0141,-3.903621 9.0266,-6.724032 14.641,-8.238119 2.5005,-0.674333 3.8191,-0.79851 8.2667,-0.778497 4.6889,0.0211 5.6487,0.131799 8.4264,0.971877 3.8769,1.172514 6.3502,2.328101 9.2887,4.339883 l 2.2715,1.555091 1.2981,-1.172825 c 0.714,-0.645055 1.7733,-1.362032 2.354,-1.593283 1.3251,-0.527724 20.8649,-3.616616 22.8781,-3.616616 0.8185,0 2.0859,0.30477 2.8166,0.677267 1.2922,0.658801 1.3688,0.65977 2.8086,0.03554 2.2308,-0.967131 6.3403,-1.532648 9.2044,-1.266645 3.4235,0.31795 5.9245,1.065871 8.9109,2.664771 l 2.524,1.351341 0.2136,-4.288775 c 0.1175,-2.358827 0.3497,-7.075753 0.516,-10.48206 0.2521,-5.162651 0.4305,-6.483541 1.0722,-7.9375 0.9697,-2.197171 2.8727,-4.185103 5.1447,-5.374174 1.52,-0.795545 2.3041,-0.942634 5.6719,-1.064002 4.1186,-0.148423 14.6248,0.652044 20.2281,1.541173 4.9921,0.792157 7.225,2.218144 9.0173,5.758676 1.1274,2.226944 0.7997,4.967533 -2.0927,17.502445 -1.4774,6.402917 -4.189,18.388541 -6.0259,26.634721 -1.8368,8.24618 -3.7099,16.62482 -4.1624,18.6192 -0.4655,2.05116 -1.1531,4.07285 -1.5832,4.65462 l -0.7604,1.02848 1.3893,2.57732 c 1.7713,3.28594 2.4832,6.04756 2.4832,9.63288 0,9.22155 -6.0912,16.81611 -14.993,18.69337 -1.3582,0.28642 -3.2632,0.52077 -4.2334,0.52077 -4.1291,0 -9.2878,-1.85711 -12.6184,-4.54266 -8.453,-6.81569 -9.3405,-19.64926 -1.9205,-27.76799 l 1.7021,-1.86238 -0.5682,-1.67375 c -0.506,-1.49023 -0.5232,-2.50746 -0.1571,-9.2775 0.2261,-4.18206 0.3538,-8.00062 0.2839,-8.48569 -0.081,-0.56262 -0.6263,0.84239 -1.5055,3.88055 -0.7579,2.61938 -1.6553,5.31813 -1.9941,5.99723 -1.7576,3.5229 -5.7649,4.85912 -10.1443,3.38251 -1.0312,-0.34769 -1.9837,-0.52272 -2.1167,-0.38895 -0.1329,0.13377 -0.2417,7.67523 -0.2417,16.75879 v 16.51557 l -1.0583,1.5334 c -0.7218,1.04581 -1.6754,1.83331 -2.9987,2.47656 -1.8719,0.90996 -2.3386,0.96516 -13.255,1.56794 -12.6013,0.69581 -12.535,0.70264 -15.023,-1.54515 l -1.2957,-1.17058 -3.314,1.41588 c -6.1803,2.64053 -13.0929,3.76234 -19.6278,3.18532 -6.6578,-0.58787 -12.0962,-2.61467 -17.3895,-6.48084 -1.4854,-1.08497 -2.7951,-1.97267 -2.9104,-1.97267 -0.1153,0 -0.2096,0.28642 -0.2096,0.63648 0,0.35007 -0.4582,1.35907 -1.0183,2.24222 -1.6039,2.52906 -2.9032,2.96657 -10.7997,3.63635 -15.828,1.34253 -16.061,1.35486 -17.4944,0.92539 -1.1228,-0.33637 -1.6751,-0.31243 -2.9752,0.12897 -1.437,0.48789 -2.7317,0.48679 -12.9648,-0.011 -12.2495,-0.59583 -13.1644,-0.7648 -15.0586,-2.78107 l -0.8087,-0.86081 -2.3366,1.17501 c -5.4421,2.73655 -11.2428,3.92172 -17.7669,3.63 -6.4798,-0.28974 -12.4928,-2.35588 -17.0158,-5.84676 l -1.7543,-1.35399 -0.9397,1.4818 c -1.5881,2.50421 -2.6643,2.8155 -14.0725,4.07047 -11.65869,1.28251 -12.88573,1.32772 -14.42543,0.53151 -1.04567,-0.54074 -1.28201,-0.5446 -2.79523,-0.0457 -7.19451,2.37199 -15.91515,0.74461 -21.25499,-3.96645 l -1.61035,-1.42072 -2.61707,1.56604 c -6.93529,4.15007 -16.8145,6.31629 -24.85691,5.45039 -2.03894,-0.21952 -4.9018,-0.70467 -6.36192,-1.07811 -5.25181,-1.34318 -11.53744,-4.86578 -15.37861,-8.61848 l -1.98797,-1.94219 -0.14303,2.2463 c -0.10931,1.71659 -0.39263,2.65026 -1.20148,3.95933 -1.54378,2.4985 -3.01195,3.1724 -8.28054,3.80081 -25.19846,3.00554 -25.54351,3.03695 -27.57516,2.50995 -3.30553,-0.85745 -5.13969,-3.52917 -5.40272,-7.86987 -0.0908,-1.4988 -0.40595,-11.93259 -0.70028,-23.1862 -0.29434,-11.25361 -0.6283,-22.10879 -0.74214,-24.12261 l -0.20697,-3.66151 -1.99142,0.22548 c -5.86714,0.66432 -7.66143,0.67581 -8.96453,0.0575 -1.39925,-0.66398 -2.60746,-1.68235 -3.48131,-2.9343 l -0.5599,-0.80215 -4.4456,3.2716 c -2.44508,1.79938 -4.45155,3.3588 -4.45882,3.46537 -0.007,0.10658 1.05835,1.07856 2.36804,2.15997 1.30969,1.0814 3.86458,3.19295 5.67755,4.69233 3.79294,3.13689 4.62137,4.51248 4.63345,7.69373 0.009,2.31834 -0.51092,3.79698 -1.92345,5.4722 -1.31641,1.56124 -2.22864,1.97871 -11.67191,5.34154 -4.47428,1.59333 -8.32645,3.01526 -8.56038,3.15983 -0.30609,0.18917 0.47803,2.43188 2.79695,7.99975 4.62761,11.11117 4.55021,10.8878 4.54656,13.12052 -0.006,3.77216 -2.67513,6.98472 -6.54401,7.87686 -1.48952,0.34348 -3.61991,0.24623 -12.87639,-0.58779 -6.10036,-0.54964 -11.7242,-1.00649 -12.49741,-1.0152 l -1.40585,-0.0158 -2.31877,10.75972 c -1.27532,5.91784 -2.57264,11.23928 -2.88293,11.82539 -0.81803,1.54523 -2.36476,2.99814 -3.98105,3.73958 -1.66453,0.76357 -5.63435,0.88808 -7.12715,0.22356 -0.54271,-0.24159 -4.94346,-2.78795 -9.77944,-5.65859 -7.06778,-4.19542 -8.87568,-5.13006 -9.21566,-4.76422 -0.23263,0.25032 -2.91739,4.42387 -5.96614,9.27456 -3.04875,4.8507 -6.14583,9.40306 -6.88239,10.11636 -1.86762,1.80864 -5.09355,2.72893 -7.59589,2.16695 z m 3.5874,-6.5306 c 0.22682,-0.17799 3.00164,-4.48204 6.16626,-9.56455 3.16461,-5.08252 6.43151,-10.27281 7.25975,-11.534 0.82825,-1.26118 1.55846,-2.44967 1.62268,-2.64109 0.11159,-0.33261 2.6071,1.10951 15.23058,8.80154 8.83349,5.38262 8.98783,5.43741 10.72004,3.80553 0.9797,-0.92296 1.15326,-1.5877 3.5691,-13.67014 1.39663,-6.985 2.65841,-12.82724 2.80396,-12.98276 0.14555,-0.15552 6.90725,0.34851 15.02599,1.12006 12.93782,1.22954 14.87831,1.34234 15.70824,0.91317 1.94167,-1.00407 1.87584,-1.57171 -0.95513,-8.23583 -1.28717,-3.03 -3.49413,-8.31894 -4.90437,-11.75319 l -2.56408,-6.24411 2.69952,-1.01338 c 1.48473,-0.55737 6.66826,-2.42667 11.51895,-4.15401 5.4395,-1.93701 9.12364,-3.44205 9.6132,-3.92717 0.95057,-0.94195 1.02217,-2.24405 0.17639,-3.20783 -0.33955,-0.38692 -3.98121,-3.42039 -8.09257,-6.74105 -4.11137,-3.32066 -7.54693,-6.15699 -7.63458,-6.30296 -0.0876,-0.14596 2.61621,-2.23949 6.00858,-4.65229 7.78433,-5.53654 8.36992,-6.07024 8.05772,-7.34367 -0.13072,-0.53319 -0.42566,-1.15467 -0.65542,-1.38108 -0.22977,-0.2264 -4.5076,-2.02423 -9.50628,-3.995162 -6.18395,-2.438271 -9.01185,-3.716007 -8.84862,-3.998076 0.13196,-0.228007 2.92736,-4.410955 6.21202,-9.295441 5.42421,-8.066137 5.94999,-8.981528 5.73115,-9.977926 -0.50345,-2.292169 -0.56096,-2.299241 -14.49797,-1.782492 -6.87685,0.254976 -12.58986,0.377094 -12.69558,0.271374 -0.10572,-0.10572 0.9515,-4.646977 2.34939,-10.091683 2.46444,-9.598865 2.52344,-9.927209 1.94295,-10.813146 -1.21427,-1.853205 -1.62127,-1.807492 -11.24219,1.262663 -4.89431,1.561838 -11.24784,3.613702 -14.11896,4.559699 l -5.22021,1.719993 -0.33604,-0.883849 c -0.18482,-0.486117 -0.33841,-1.071952 -0.3413,-1.301855 -0.003,-0.229904 -1.25985,-5.494976 -2.79322,-11.700161 -2.46413,-9.971695 -2.89605,-11.375133 -3.71858,-12.082639 -0.51184,-0.440267 -1.36002,-0.800486 -1.88485,-0.800486 -1.24534,0 -2.15467,0.617851 -24.67395,16.764909 -1.79637,1.28806 -3.39742,2.289452 -3.55788,2.225315 -0.16046,-0.06414 -3.7452,-3.847237 -7.9661,-8.40689 -10.4448,-11.283053 -10.82274,-11.641667 -12.26905,-11.641667 -0.65035,0 -1.54953,0.257109 -1.99818,0.571355 -0.5084,0.356098 -3.19547,5.361642 -7.1323,13.286211 -3.47411,6.993171 -6.3761,12.77438 -6.44885,12.847132 -0.0728,0.07275 -0.98635,-0.206062 -2.03022,-0.619587 -1.04387,-0.413524 -3.88233,-1.461258 -6.30767,-2.328298 -17.6302,-6.302635 -22.52361,-7.973038 -23.39291,-7.985356 -0.59491,-0.0084 -1.33586,0.330285 -1.85234,0.846764 -0.85693,0.856931 -0.86312,0.91546 -1.37254,12.976795 -0.28145,6.663789 -0.55915,12.163389 -0.61711,12.221333 -0.058,0.05794 -7.30268,0.158282 -16.09937,0.222975 l -15.99398,0.117622 -0.85116,0.989811 c -0.46814,0.544396 -0.85116,1.225834 -0.85116,1.514306 0,0.451645 5.43996,9.794576 11.87123,20.388408 1.0474,1.725333 1.8608,3.164119 1.80755,3.197309 -0.15138,0.0943 -22.27539,9.3013 -26.06802,10.84829 -2.59888,1.06006 -3.49122,1.59882 -3.81117,2.30105 -0.81744,1.79408 -0.11102,2.4879 6.24178,6.13043 3.24593,1.86113 8.55097,4.94181 11.78897,6.84595 l 5.88728,3.46206 -1.30117,1.48521 c -0.71564,0.81687 -4.99211,5.56235 -9.50325,10.54553 -5.88225,6.49773 -8.20208,9.29861 -8.20208,9.90284 0,0.46338 0.35718,1.23602 0.79374,1.71696 0.75068,0.82698 1.15751,0.90473 7.49653,1.43274 10.83517,0.90251 24.55462,2.23724 24.72257,2.40519 0.0855,0.0855 -0.39189,4.6684 -1.06085,10.18423 -1.8744,15.45506 -1.86816,15.34106 -0.89584,16.37605 0.48742,0.51884 1.21147,0.86948 1.7954,0.86948 0.53821,0 4.7571,-1.28301 9.37531,-2.85113 4.61821,-1.56811 10.98991,-3.72952 14.15932,-4.80312 3.17803,-1.07652 5.89024,-1.81512 6.04723,-1.6468 0.15656,0.16787 2.44426,5.70271 5.08377,12.29966 2.97617,7.43834 5.08256,12.22895 5.54533,12.61181 1.08663,0.89899 2.45291,0.75921 4.22354,-0.4321 0.85788,-0.57721 6.00479,-4.69558 11.43756,-9.15193 l 9.87778,-8.10248 9.87778,10.03271 c 5.43278,5.51798 10.27465,10.178 10.75972,10.3556 0.92768,0.33963 2.3625,0.15728 3.05824,-0.38868 z m 128.55872,-35.21537 c 14.24911,-1.5603 21.33416,-2.52913 22.09863,-3.02185 1.73044,-1.11531 1.88438,-2.02188 1.65573,-9.75079 l -0.21163,-7.15359 1.88336,3.14383 c 4.45085,7.42967 11.20275,12.6892 19.59692,15.26544 2.8932,0.88794 3.53633,0.95137 9.62671,0.94948 5.9271,-0.002 6.8408,-0.0868 9.95039,-0.92486 3.93629,-1.06092 8.30999,-3.02042 11.8429,-5.30584 l 2.45548,-1.58844 2.26982,2.16769 c 3.79477,3.62405 7.68483,5.15484 13.118,5.16212 3.06676,0.004 6.54536,-0.65465 8.32991,-1.57747 0.80948,-0.41861 1.00297,-0.37952 1.8874,0.38123 0.69883,0.60111 1.41209,0.84765 2.45229,0.84765 3.05533,0 20.89483,-2.18956 21.84563,-2.68127 1.4585,-0.75418 2.0482,-2.21175 2.0482,-5.06232 0,-1.36783 0.073,-2.48696 0.1622,-2.48696 0.089,0 0.908,0.79726 1.8195,1.77169 9.5768,10.23834 25.3617,12.06099 38.1229,4.40195 3.363,-2.01838 3.1533,-2.03692 3.865,0.34183 0.4629,1.54751 2.3224,2.65277 4.5013,2.67562 0.99,0.0104 5.9274,0.22822 10.9722,0.48407 8.0773,0.40966 9.3105,0.40192 10.3309,-0.0649 0.6373,-0.29153 1.3654,-0.82507 1.6179,-1.18565 0.4407,-0.62919 0.4913,-0.62143 1.256,0.19253 0.4382,0.46647 1.1854,0.94567 1.6604,1.06488 1.1665,0.29277 21.9133,-1.49205 23.1883,-1.99485 1.8806,-0.74163 2.3363,-2.06563 2.3421,-6.80526 v -4.23334 l 0.9564,1.23473 c 4.423,5.71019 10.5754,9.93013 17.0652,11.70513 2.5508,0.69767 3.7914,0.80933 8.9581,0.80629 5.4176,-0.003 6.3271,-0.0951 9.4109,-0.95054 3.6927,-1.02442 7.1507,-2.47938 9.871,-4.15321 0.9454,-0.58172 1.7757,-1.05767 1.845,-1.05767 0.069,0 0.2247,0.61778 0.3455,1.37285 0.1548,0.96782 0.588,1.69638 1.4685,2.46945 1.4969,1.3143 0.9202,1.29656 14.326,0.4407 10.602,-0.67686 11.041,-0.78142 12.1312,-2.88975 0.4884,-0.94434 0.5266,-2.91588 0.3271,-16.84182 l -0.2261,-15.77227 0.8268,-1.58299 c 1.1632,-2.22688 2.2319,-2.47025 5.6568,-1.28812 2.1489,0.74167 2.8574,0.84564 3.8657,0.56723 2.1984,-0.607 2.6351,-1.45728 5.2686,-10.25832 1.358,-4.53843 3.115,-10.35648 3.9044,-12.92901 1.6247,-5.29508 1.618,-6.418014 -0.05,-8.317553 -1.4957,-1.703472 -5.9704,-3.681329 -9.4887,-4.194137 -2.4777,-0.361124 -3.3234,-0.338943 -5.6835,0.149071 -1.5249,0.315328 -3.5631,0.970355 -4.5292,1.455616 l -1.7566,0.882293 -0.7945,-0.845667 c -0.437,-0.465118 -1.3005,-0.9406 -1.919,-1.056627 -1.5675,-0.294074 -21.5831,2.912844 -22.891,3.667622 -1.6007,0.923738 -2.4095,2.264716 -2.4606,4.079768 -0.025,0.891374 -0.074,1.621654 -0.109,1.622834 -0.035,10e-4 -1.0667,-0.95905 -2.2931,-2.133863 -4.3893,-4.204735 -9.0357,-6.5322 -15.1739,-7.600901 -10.2729,-1.788587 -21.5389,2.743459 -27.7045,11.144914 -1.1206,1.52701 -2.1168,2.7868 -2.2139,2.79954 -0.097,0.0127 -0.4751,-0.73031 -0.8401,-1.65122 -1.0137,-2.55697 -3.3165,-5.956581 -5.0954,-7.522458 -4.9165,-4.327687 -12.8149,-5.670248 -19.4943,-3.313624 l -1.4941,0.527168 0.242,-11.116521 c 0.2684,-12.33174 0.2208,-12.669691 -1.9418,-13.788035 -1.0055,-0.519934 -1.4312,-0.519882 -5.1975,6.39e-4 -2.2563,0.311826 -8.0662,1.044755 -12.9109,1.62873 -5.5716,0.671604 -9.1015,1.253754 -9.6058,1.584213 -0.4386,0.287341 -1.0548,1.020243 -1.3694,1.62867 -0.5139,0.993788 -0.5326,1.974162 -0.1838,9.64503 0.2136,4.696339 0.3884,9.095804 0.3884,9.77659 v 1.237791 l -2.9105,-1.16805 c -9.1307,-3.664564 -20.4952,-2.75294 -29.2226,2.344173 -3.0257,1.767087 -8.17,6.589874 -10.0751,9.445384 -0.7346,1.10113 -1.4392,2.13187 -1.5656,2.29056 -0.1265,0.15868 -0.9852,-1.27007 -1.9083,-3.175 -2.9729,-6.134938 -8.328,-10.569852 -14.8191,-12.272739 -8.4544,-2.21793 -20.48082,-0.610433 -29.79786,3.982893 -3.27887,1.616497 -3.94858,2.502917 -4.21588,5.580096 l -0.20571,2.36806 -1.01613,-1.46985 c -0.55887,-0.80841 -2.24675,-2.645583 -3.75086,-4.082594 -2.07117,-1.978784 -3.53659,-3.006578 -6.03942,-4.235831 -4.97076,-2.441357 -6.9408,-2.864007 -13.18248,-2.828155 -6.27773,0.03606 -9.19934,0.686063 -14.02292,3.119838 l -3.0868,1.557472 0.0182,-2.001075 c 0.01,-1.100591 0.30858,-6.52545 0.66354,-12.055242 0.63159,-9.839548 0.63113,-10.084939 -0.0217,-11.495747 -0.90425,-1.954166 -1.86799,-2.407409 -4.61038,-2.168254 -2.55141,0.222501 -25.55276,3.449108 -39.61769,5.557533 -5.23875,0.785323 -12.29726,1.832711 -15.68558,2.32753 -3.38833,0.494819 -6.58161,1.117388 -7.09619,1.383486 -0.51457,0.266099 -1.20802,1.057914 -1.54099,1.759589 -0.58601,1.234929 -0.55671,1.717984 0.91513,15.08829 1.51221,13.7371 1.526,13.81876 2.52505,14.95662 0.57278,0.65236 1.48573,1.23371 2.12411,1.3526 0.61577,0.11467 3.5802,-0.10302 6.58763,-0.48376 3.00744,-0.38074 5.51376,-0.64885 5.56961,-0.59579 0.14379,0.13659 0.6655,14.83942 1.31476,37.05263 0.33675,11.52141 0.70861,19.43812 0.94092,20.03209 0.58443,1.49429 1.92511,2.3693 3.63021,2.3693 0.81541,0 4.40556,-0.32007 7.97812,-0.71127 z M 1061.1641,81.038316 c 0.017,-0.410966 0.1005,-0.494559 0.2131,-0.213136 0.1019,0.254661 0.089,0.558932 -0.028,0.676157 -0.1172,0.117225 -0.2006,-0.09113 -0.1852,-0.463021 z m 167.6498,85.051784 c 7.3885,-1.92444 12.239,-8.04759 12.239,-15.45 0,-4.39225 -1.424,-7.95927 -4.4833,-11.22991 -1.525,-1.63034 -1.529,-1.64136 -0.6693,-1.85712 1.4241,-0.35745 2.9231,-2.14922 3.3456,-3.99907 0.2118,-0.92746 2.0667,-9.30628 4.122,-18.61962 2.0553,-9.31333 4.9153,-22.055971 6.3554,-28.316975 1.4402,-6.261004 2.6179,-12.134754 2.6172,-13.052778 0,-2.494905 -1.3313,-4.466245 -3.7453,-5.554064 -1.4326,-0.645576 -12.2527,-1.873024 -19.0024,-2.15567 -6.1779,-0.258696 -7.6927,0.02983 -9.7059,1.848675 -2.1887,1.977376 -2.3941,2.978298 -2.9949,14.598869 -0.9394,18.168393 -1.9326,36.654123 -2.3238,43.252293 -0.4231,7.13642 -0.2586,8.08525 1.6788,9.68874 l 1.0362,0.85758 -1.7741,1.24002 c -11.3632,7.9424 -7.8882,25.43084 5.7081,28.72669 2.6952,0.65336 5.1464,0.66057 7.5967,0.0223 z"
         id="path9" /><path
         style="fill:#000000"
         d="m 877.3935,161.06008 c -0.1395,-7.86235 -1.58661,-57.08126 -1.68165,-57.19601 -0.0611,-0.0738 -3.54388,0.29598 -7.73945,0.82176 -4.19557,0.52577 -7.6674,0.90366 -7.71518,0.83975 -0.0478,-0.0639 -0.59652,-5.03745 -1.21941,-11.05231 -0.62289,-6.014861 -1.21765,-11.575307 -1.32167,-12.356547 l -0.18914,-1.420435 6.64281,-0.953555 c 3.65355,-0.524455 14.26281,-2.061199 23.57615,-3.414987 23.05163,-3.350788 30.19962,-4.336339 30.3512,-4.184762 0.15432,0.154324 -1.50111,26.053343 -1.67651,26.228743 -0.0672,0.06724 -3.35429,0.561215 -7.30457,1.097732 l -7.18233,0.975481 0.24117,6.18639 c 0.13264,3.40251 0.62538,14.20326 1.09497,24.00166 1.45108,30.27755 1.45242,30.33862 0.66853,30.34049 -0.36863,8.8e-4 -3.33262,0.3173 -6.58665,0.70316 -8.51895,1.01017 -18.61839,2.11747 -19.31306,2.11747 -0.50491,0 -0.60416,-0.42058 -0.64521,-2.73403 z m 55.86079,1.15194 c -5.99288,-1.32409 -9.72788,-3.39685 -14.33213,-7.95369 -3.09217,-3.06033 -3.57446,-3.72539 -5.3724,-7.40833 -2.982,-6.10839 -3.5651,-8.90503 -3.5651,-17.09895 0,-5.74216 0.11132,-7.14301 0.77672,-9.77455 1.92307,-7.60546 4.69318,-12.73467 9.39976,-17.40485 2.70401,-2.683104 3.74838,-3.450285 6.56677,-4.82387 4.0992,-1.99781 7.34476,-2.745343 11.91946,-2.745343 6.84938,0 11.95171,2.01807 16.5008,6.526393 3.32785,3.29802 5.56605,6.9363 7.16173,11.64166 0.90025,2.65465 2.1586,8.66324 2.16381,10.33209 10e-4,0.34295 -27.76524,14.5103 -30.0764,15.34604 -0.7306,0.26419 1.41253,2.23874 3.39638,3.12923 1.41781,0.63641 2.42287,0.80946 4.63283,0.79766 3.4289,-0.0183 6.42045,-1.09854 10.36503,-3.74276 1.43216,-0.96004 2.72666,-1.61554 2.87666,-1.45667 0.43076,0.45622 7.39581,15.956 7.39581,16.45839 0,0.72919 -6.43812,4.77471 -9.74252,6.1219 -4.38303,1.78694 -8.627,2.57487 -13.7172,2.54672 -2.32834,-0.0129 -5.18584,-0.23386 -6.35001,-0.49107 z m 5.03068,-39.3936 c 3.63468,-1.74782 6.67013,-3.23947 6.74543,-3.31477 0.30769,-0.3077 -0.78369,-2.2541 -1.83375,-3.27035 -3.19765,-3.09472 -7.60554,-2.81735 -10.58735,0.66623 -0.72115,0.84249 -1.53222,2.27615 -1.80239,3.18589 -0.63791,2.14807 -1.04561,5.44694 -0.73524,5.94913 0.33387,0.54021 0.69965,0.39698 8.2133,-3.21613 z m 39.41933,39.16633 c -8.42508,-0.90575 -13.86319,-8.15655 -14.5208,-19.36103 -0.34829,-5.93444 0.79071,-10.4389 3.73648,-14.77673 4.91607,-7.23923 14.97511,-10.05127 23.43655,-6.55176 0.61123,0.2528 0.63952,0.13718 0.39961,-1.63328 -0.3166,-2.33646 -0.88085,-3.48592 -2.29549,-4.67627 -2.97212,-2.50088 -8.85111,-2.02428 -16.71997,1.35547 -1.65635,0.71141 -3.15014,1.20782 -3.31953,1.10313 -0.16939,-0.10468 -0.41047,-2.22037 -0.53574,-4.70151 -0.12526,-2.48114 -0.3314,-6.34467 -0.45808,-8.58561 l -0.23033,-4.07444 2.25226,-1.010761 c 6.47449,-2.905575 12.19715,-4.181418 18.66198,-4.160608 7.06596,0.02274 11.45242,1.508757 15.50386,5.252279 3.4682,3.20462 5.4993,7.54459 6.335,13.53603 0.6291,4.51113 1.9825,45.48999 1.5159,45.90151 -0.2277,0.2009 -17.09456,2.10006 -18.50406,2.08352 -0.5239,-0.006 -0.61736,-0.35439 -0.61736,-2.30031 0,-1.26118 -0.0924,-2.29305 -0.20522,-2.29305 -0.11286,0 -0.87593,0.54961 -1.69571,1.22135 -3.42966,2.81035 -8.13606,4.16695 -12.73935,3.67207 z m 10.02384,-17.22518 c 2.69848,-1.37666 3.86755,-3.69265 3.44694,-6.82857 -0.37835,-2.82075 -3.6169,-4.70315 -6.56955,-3.81852 -4.14785,1.24273 -6.23251,5.38553 -4.44722,8.83789 1.24181,2.40139 4.76057,3.24239 7.56983,1.8092 z m 46.97626,17.23986 c -10.8347,-2.12573 -18.7038,-10.64157 -21.636,-23.41418 -0.5847,-2.54703 -0.7339,-4.39818 -0.7404,-9.18698 -0.01,-5.30808 0.098,-6.42286 0.9156,-9.70139 2.8058,-11.25059 8.5395,-18.58626 17.552,-22.455914 5.6622,-2.431179 13.4127,-2.905191 19.3949,-1.186166 2.5906,0.744425 7.1237,2.909114 8.7987,4.20161 l 0.8515,0.65708 -3.2149,7.18684 c -5.4862,12.2645 -5.3286,11.95017 -5.9882,11.93811 -0.3376,-0.006 -0.9291,-0.24948 -1.3144,-0.54068 -0.9884,-0.74703 -4.9495,-1.91792 -6.4804,-1.91558 -3.4237,0.005 -6.6429,1.96796 -8.3835,5.11139 -2.9649,5.35462 -2.0761,12.54517 1.9284,15.59948 1.8405,1.4038 3.9555,2.00635 6.0396,1.72069 1.985,-0.27208 5.4853,-1.89304 7.6391,-3.53762 0.9055,-0.69136 1.7745,-1.25701 1.9311,-1.25701 0.1566,0 0.8788,1.07156 1.6049,2.38125 0.7261,1.30968 2.8836,5.15937 4.7945,8.55486 l 3.4743,6.17361 -1.507,1.3547 c -2.4167,2.17254 -7.3413,5.31182 -10.1831,6.49143 -4.767,1.97876 -10.9657,2.7095 -15.4767,1.82447 z m 100.868,-0.66618 c -1.4552,-0.38458 -4.0927,-1.42453 -5.8612,-2.31099 -13.2071,-6.62037 -19.3717,-24.09218 -14.8,-41.94603 2.2001,-8.59178 7.4665,-15.78987 13.9532,-19.071125 10.2799,-5.200011 23.4669,-2.316061 30.1684,6.597685 1.9534,2.5983 4.0038,6.57238 5.0574,9.80243 0.9242,2.8331 1.8228,7.07809 1.8159,8.57792 v 1.12347 l -14.1941,7.1977 c -7.8068,3.95873 -14.262,7.25445 -14.3448,7.32382 -0.2564,0.21462 1.8604,2.27012 2.8935,2.80968 1.9064,0.9957 4.5789,1.25388 7.2387,0.69929 2.8315,-0.59039 4.6541,-1.44594 7.7021,-3.61556 1.1888,-0.8462 2.2644,-1.53854 2.3902,-1.53854 0.1258,0 0.7545,1.15093 1.3972,2.55763 0.6427,1.4067 2.3221,4.97978 3.732,7.94017 1.4099,2.96039 2.4743,5.6148 2.3654,5.89868 -0.6265,1.63256 -8.6224,6.20106 -13.281,7.58812 -3.8974,1.16045 -12.4879,1.35402 -16.2277,0.36565 z m 4.7685,-38.31022 c 5.0867,-2.49899 6.8731,-3.53971 6.8731,-4.00402 0,-1.04121 -1.9458,-3.39248 -3.3985,-4.10672 -1.7664,-0.86841 -4.4893,-0.86841 -6.2557,0 -2.6783,1.31677 -4.4569,5.01148 -4.4569,9.25835 0,1.22596 0.082,2.22902 0.1824,2.22902 0.1003,0 3.2753,-1.51948 7.0556,-3.37663 z m 81.8384,38.69168 c -3.3801,-0.90901 -6.3051,-3.20943 -7.8792,-6.19672 -0.8234,-1.5628 -0.9368,-2.18376 -0.9368,-5.12944 0,-2.94568 0.1134,-3.56664 0.9368,-5.12944 1.1441,-2.17136 3.6627,-4.5545 5.877,-5.56093 1.257,-0.57132 2.363,-0.75272 4.6481,-0.76231 2.5837,-0.0109 3.2763,0.12379 5.0059,0.97315 2.6024,1.27798 5.3085,4.21636 6.1547,6.6831 0.3835,1.11778 0.6247,2.78469 0.6063,4.19036 -0.079,6.03757 -4.7919,10.84819 -10.885,11.11053 -1.3582,0.0585 -2.9457,-0.0217 -3.5278,-0.1783 z m -148.4577,-0.586 c -5.2048,-0.24469 -9.5255,-0.50715 -9.6016,-0.58323 -0.076,-0.0761 -0.4606,-9.65533 -0.8546,-21.28722 -1.7234,-50.88561 -2.1366,-63.76737 -2.0476,-63.835896 0.2637,-0.202938 22.1623,-2.74364 22.3168,-2.589216 0.099,0.09923 0.012,6.57335 -0.1946,14.386926 -0.2062,7.813576 -0.2927,14.288756 -0.1922,14.389296 0.1005,0.10053 0.9438,-0.49459 1.8738,-1.3225 2.8875,-2.570363 7.4301,-4.236596 11.498,-4.217475 5.4759,0.02574 9.8978,2.650157 12.3599,7.335695 2.5674,4.88565 2.5276,4.38486 2.5276,31.81148 v 24.51552 l -7.5847,0.58412 c -4.1716,0.32126 -8.6563,0.6807 -9.966,0.79875 l -2.3813,0.21463 v -19.14066 c 0,-11.96735 -0.1373,-19.62795 -0.3631,-20.4409 -0.4892,-1.76156 -2.1438,-3.10948 -3.8168,-3.10948 -1.5686,0 -2.6761,0.7113 -3.4561,2.21968 -0.5251,1.01545 -0.5547,2.94754 -0.3217,20.96886 0.1411,10.91769 0.1245,19.82699 -0.037,19.79843 -0.1615,-0.0285 -4.5521,-0.25211 -9.7569,-0.49681 z m 94.5323,-8.35891 c -0.1315,-4.31712 -0.4679,-15.86618 -0.7477,-25.66458 -0.2797,-9.79841 -0.6131,-20.06973 -0.7408,-22.82516 l -0.2322,-5.00987 0.8356,-0.193766 c 1.226,-0.28433 18.034,-3.015653 18.5577,-3.015653 0.3362,0 0.4459,1.113896 0.4459,4.527319 0,2.49002 0.095,4.62262 0.2118,4.73911 0.1165,0.11649 0.7435,-0.85103 1.3934,-2.15005 0.6498,-1.29902 1.7518,-3.02808 2.4488,-3.842358 2.5803,-3.014512 7.8264,-4.592106 12.1715,-3.660232 2.6042,0.558503 5.9995,2.126718 5.9995,2.771065 0,0.288537 -0.9695,3.719665 -2.1544,7.624745 -1.1849,3.90507 -2.7038,9.00512 -3.3753,11.33346 -0.6715,2.32833 -1.2844,4.43146 -1.3621,4.67362 -0.106,0.33088 -0.5855,0.26513 -1.9294,-0.26458 -2.5008,-0.98571 -5.7306,-0.94211 -7.583,0.10237 -1.8273,1.03034 -3.548,3.62037 -4.0675,6.12262 -0.3009,1.44964 -0.342,5.9616 -0.1525,16.75343 l 0.2594,14.76948 -0.8419,0.008 c -0.4631,0.004 -4.2551,0.23888 -8.4267,0.52163 -4.1716,0.28275 -8.2341,0.51749 -9.0278,0.52163 l -1.4432,0.008 z m 57.2768,-20.25152 c -3.2014,-0.27863 -6.0415,-0.58221 -6.3111,-0.67462 -0.5422,-0.18582 -0.5659,0.59073 0.6674,-21.84817 0.3732,-6.79097 0.9285,-17.665345 1.2339,-24.165275 0.6434,-13.691276 0.6642,-13.874258 1.692,-14.858313 0.7449,-0.713215 1.0141,-0.735767 6.422,-0.538086 5.0017,0.182834 12.6807,0.876086 16.506,1.490149 0.8114,0.130242 1.5322,0.5134 1.8343,0.974989 0.5267,0.804953 0.1641,2.675562 -4.011,20.692372 -1.7426,7.520014 -4.8668,21.522764 -7.0839,31.750004 l -1.6442,7.58472 -1.7423,0.0494 c -0.9582,0.0272 -4.3616,-0.17856 -7.5631,-0.45718 z"
         id="path8" /></g></g></svg>
